<svg width="458" height="458" viewBox="0 0 458 458" fill="none" xmlns="http://www.w3.org/2000/svg">
<path d="M424.694 383.612L421.617 380.535L448.538 353.614C459.863 342.288 459.862 323.86 448.537 312.535L437.09 301.088L448.497 289.681C459.824 278.355 459.824 259.927 448.498 248.6L426.47 226.572C415.144 215.247 396.715 215.247 385.389 226.573L326.521 285.441L172.495 131.415L231.363 72.547C242.69 61.2205 242.69 42.7926 231.364 31.4662L209.336 9.43839C198.01 -1.88734 179.581 -1.88663 168.255 9.4391L156.848 20.8461L145.402 9.4002C134.077 -1.92553 115.649 -1.92623 104.323 9.3995L77.402 36.3205L74.3239 33.2424C71.1016 30.0201 65.8782 30.0194 62.6552 33.2424L33.2424 62.6552C30.0194 65.8782 30.0201 71.1016 33.2424 74.3239L36.3205 77.402L9.40021 104.322C-1.92552 115.648 -1.9241 134.077 9.40092 145.402L20.8469 156.848L9.4384 168.256C-1.88733 179.582 -1.88804 198.01 9.43839 209.336L31.4662 231.364C42.7919 242.69 61.2205 242.69 72.5463 231.364L131.415 172.495L285.441 326.521L226.572 385.39C215.247 396.716 215.246 415.144 226.572 426.47L248.6 448.498C259.926 459.824 278.355 459.824 289.68 448.498L301.089 437.089L312.535 448.535C323.86 459.861 342.288 459.862 353.614 448.536L380.534 421.616L383.612 424.693C386.834 427.915 392.057 427.916 395.28 424.693L424.693 395.28C427.916 392.059 427.916 386.835 424.694 383.612ZM32.5155 145.179L21.0696 133.733C16.1778 128.841 16.1778 120.883 21.0689 115.992L115.992 21.0689C120.883 16.1778 128.842 16.1785 133.733 21.0696L145.179 32.5155L32.5155 145.179ZM60.8769 219.696C55.9851 224.588 48.0273 224.588 43.1356 219.696L21.1071 197.667C16.2153 192.776 16.2153 184.818 21.1071 179.926L179.925 21.1078C184.817 16.216 192.776 16.2153 197.667 21.1071L219.695 43.1348C224.587 48.0266 224.586 55.9851 219.694 60.8769L60.8762 219.695L60.8769 219.696ZM278.01 436.829C273.118 441.721 265.161 441.721 260.269 436.829L238.241 414.801C233.349 409.91 233.349 401.952 238.241 397.06L397.059 238.242C401.951 233.35 409.91 233.349 414.801 238.241L436.829 260.269C441.721 265.161 441.72 273.119 436.829 278.011L278.01 436.829ZM341.944 436.867C337.053 441.759 329.094 441.758 324.203 436.867L312.757 425.421L425.422 312.756L436.868 324.202C441.76 329.094 441.76 337.052 436.869 341.943L341.944 436.867Z" fill="#DA2722"/>
</svg>
